<svg width="14" height="15" viewBox="0 0 14 15" fill="none" xmlns="http://www.w3.org/2000/svg">
<path d="M5.06945 2.6307C5.46812 1.46403 7.08012 1.4287 7.55278 2.5247L7.59278 2.63136L8.13078 4.2047C8.25408 4.56552 8.45332 4.8957 8.71507 5.17298C8.97682 5.45026 9.29499 5.66817 9.64812 5.81203L9.79278 5.86603L11.3661 6.40337C12.5328 6.80203 12.5681 8.41403 11.4728 8.8867L11.3661 8.9267L9.79278 9.4647C9.43184 9.58791 9.10152 9.78712 8.82413 10.0489C8.54673 10.3106 8.32871 10.6288 8.18478 10.982L8.13078 11.126L7.59345 12.7C7.19478 13.8667 5.58278 13.902 5.11078 12.8067L5.06945 12.7L4.53212 11.1267C4.4089 10.7658 4.2097 10.4354 3.94794 10.158C3.68619 9.88065 3.36798 9.66263 3.01478 9.5187L2.87078 9.4647L1.29745 8.92736C0.130116 8.5287 0.0947831 6.9167 1.19078 6.4447L1.29745 6.40337L2.87078 5.86603C3.23161 5.74274 3.56179 5.54349 3.83907 5.28174C4.11634 5.02 4.33426 4.70183 4.47812 4.3487L4.53212 4.2047L5.06945 2.6307ZM11.6648 0.332031C11.7895 0.332031 11.9117 0.367017 12.0176 0.433012C12.1234 0.499008 12.2086 0.593366 12.2635 0.705365L12.2955 0.783365L12.5288 1.46736L13.2135 1.7007C13.3384 1.74316 13.448 1.82177 13.5283 1.92657C13.6085 2.03137 13.6559 2.15764 13.6643 2.28938C13.6727 2.42111 13.6419 2.55239 13.5756 2.66656C13.5093 2.78073 13.4107 2.87266 13.2921 2.9307L13.2135 2.9627L12.5295 3.19603L12.2961 3.8807C12.2536 4.00565 12.1749 4.11516 12.0701 4.19536C11.9652 4.27556 11.8389 4.32283 11.7072 4.33118C11.5755 4.33953 11.4442 4.30859 11.3301 4.24228C11.216 4.17597 11.1241 4.07728 11.0661 3.9587L11.0341 3.8807L10.8008 3.1967L10.1161 2.96336C9.99113 2.9209 9.88156 2.84229 9.8013 2.73749C9.72104 2.63269 9.67369 2.50642 9.66527 2.37468C9.65684 2.24295 9.68771 2.11168 9.75397 1.99751C9.82023 1.88334 9.91889 1.79141 10.0375 1.73336L10.1161 1.70136L10.8001 1.46803L11.0335 0.783365C11.0784 0.651648 11.1635 0.537304 11.2767 0.456364C11.3899 0.375424 11.5256 0.331948 11.6648 0.332031Z" fill="black"/>
</svg>
