<svg width="32" height="32" viewBox="0 0 32 32" fill="none" xmlns="http://www.w3.org/2000/svg">
<path d="M0.25 16C0.25 7.30152 7.30152 0.25 16 0.25C24.6985 0.25 31.75 7.30152 31.75 16C31.75 24.6985 24.6985 31.75 16 31.75C7.30152 31.75 0.25 24.6985 0.25 16Z" stroke="black" stroke-opacity="0.1" stroke-width="0.5"/>
<path d="M16 25C17.1819 25 18.3522 24.7672 19.4442 24.3149C20.5361 23.8626 21.5282 23.1997 22.364 22.364C23.1997 21.5282 23.8626 20.5361 24.3149 19.4442C24.7672 18.3522 25 17.1819 25 16C25 14.8181 24.7672 13.6478 24.3149 12.5558C23.8626 11.4639 23.1997 10.4718 22.364 9.63604C21.5282 8.80031 20.5361 8.13738 19.4442 7.68508C18.3522 7.23279 17.1819 7 16 7M16 25C14.8181 25 13.6478 24.7672 12.5558 24.3149C11.4639 23.8626 10.4718 23.1997 9.63604 22.364C8.80031 21.5282 8.13738 20.5361 7.68508 19.4442C7.23279 18.3522 7 17.1819 7 16C7 14.8181 7.23279 13.6478 7.68508 12.5558C8.13738 11.4639 8.80031 10.4718 9.63604 9.63604C10.4718 8.80031 11.4639 8.13738 12.5558 7.68508C13.6478 7.23279 14.8181 7 16 7M16 25C18.761 25 19.941 19.837 19.941 16C19.941 12.163 18.761 7 16 7M16 25C13.239 25 12.059 19.837 12.059 16C12.059 12.163 13.239 7 16 7M7.5 13H24.5M7.5 19H24.5" stroke="black" stroke-width="1.5" stroke-linecap="round" stroke-linejoin="round"/>
</svg>
