<svg width="31" height="24" viewBox="0 0 31 24" fill="none" xmlns="http://www.w3.org/2000/svg">
<path d="M3.86798 0.158917C2.97096 0.478402 2.35657 0.847038 1.82819 1.37542C1.02948 2.16184 0.427376 3.23088 0.365936 3.95587C0.365936 4.01731 0.316785 4.15247 0.267633 4.2262C0.206194 4.31222 0.206194 4.38594 0.243058 4.38594C0.279921 4.38594 0.23077 4.50882 0.132467 4.64399C-0.137866 5.02491 0.00958827 5.24609 0.537967 5.24609C0.992618 5.23381 2.07395 4.98805 2.20912 4.85288C2.25827 4.81602 2.31971 4.48425 2.35657 4.1279C2.45487 3.23088 2.82351 2.46904 3.51163 1.7932C4.1506 1.16652 4.34721 1.0928 5.47769 1.12966C6.86622 1.16652 7.5912 1.46143 8.47593 2.35845C9.05346 2.94826 9.23778 3.2186 9.18862 3.40291C9.1149 3.69782 9.58184 3.93129 9.91361 3.75926C10.0242 3.69782 10.2331 3.64867 10.3683 3.64867C10.9089 3.64867 10.786 3.3169 9.82759 2.18642C9.17634 1.42457 8.64796 0.994493 7.81238 0.601281C6.93994 0.183493 6.81707 0.158917 5.47769 0.122054C4.69127 0.109766 3.96628 0.122054 3.86798 0.158917Z" fill="#A540F3"/>
<path d="M20.9471 0.381852C20.259 0.578458 19.2268 1.05768 19.2268 1.16828C19.2268 1.21743 19.1039 1.31573 18.9565 1.37717C18.5879 1.53691 17.2608 3.51526 17.2976 3.83474C17.3345 4.15423 18.1824 4.59659 18.4035 4.39998C18.4896 4.33854 18.6984 4.31397 18.8582 4.35083C19.0917 4.41227 19.1285 4.3877 19.0671 4.22795C19.0179 4.10508 19.0302 4.01906 19.0794 4.01906C19.1285 4.01906 19.276 3.83474 19.4111 3.61356C19.534 3.40467 20.0378 2.82714 20.5048 2.3602L21.3772 1.50005L22.7289 1.51234C24.0068 1.52462 24.1174 1.5492 24.8178 1.93012C26.2678 2.70426 26.8084 3.29408 27.2139 4.54744C27.4351 5.22327 27.4105 5.1987 28.2338 5.03895C28.7008 4.95294 28.6885 4.7932 28.0987 3.40467C27.8652 2.83943 27.0788 1.80724 26.8945 1.80724C26.8084 1.80724 26.7224 1.73352 26.6856 1.6475C26.6487 1.5492 26.2309 1.27887 25.7394 1.02082C24.4123 0.320413 22.1882 0.0255041 20.9471 0.381852Z" fill="#A540F3"/>
<path d="M6.32519 4.03297C5.52648 4.11899 4.97352 4.27873 4.6909 4.5122C4.61718 4.57364 4.35913 4.77025 4.15024 4.95457C3.92906 5.12659 3.74474 5.34778 3.74474 5.43379C3.74474 5.51981 3.65872 5.6304 3.54813 5.66726C3.44983 5.70412 3.40068 5.79014 3.43754 5.86387C3.4744 5.92531 3.46212 5.98675 3.41297 5.98675C3.35153 5.98675 3.0689 6.50284 2.774 7.11723C1.76639 9.26761 1.52063 9.67311 1.22572 9.67311C1.07827 9.67311 0.955392 9.94344 0.844801 10.4718C0.820225 10.607 0.73421 10.9633 0.672771 11.2705C0.414726 12.401 0.463877 13.6175 0.869377 15.387C2.07359 20.7813 4.03965 23.5584 6.87814 23.8779C7.4311 23.9393 9.50775 23.4109 9.6552 23.1775C9.70435 23.0915 9.82723 23.0669 9.92553 23.1037C10.2942 23.2389 11.953 21.961 12.334 21.236C12.4077 21.1008 12.4691 20.8551 12.4691 20.683C12.4691 20.4864 12.5551 20.3513 12.7272 20.3021C12.9729 20.2161 13.8331 19.6263 14.3123 19.2085C14.7055 18.8521 15.1479 18.3115 15.3568 17.906C15.7623 17.1196 15.5288 14.1705 14.9513 12.9048C14.7055 12.3641 14.2017 11.6146 14.0051 11.4917C13.3661 11.0985 13.2924 10.951 13.2064 9.94344C13.0958 8.60406 12.4077 7.19096 11.3386 6.0359C9.77808 4.37704 8.40184 3.82408 6.32519 4.03297ZM8.90564 5.45837C9.88867 5.93759 10.6997 6.76088 11.3141 7.87908L11.781 8.72694L11.3509 8.64092C9.82723 8.30915 7.29593 8.34602 4.85065 8.73923C4.27312 8.82524 3.7816 8.88668 3.75703 8.86211C3.74474 8.84982 3.86762 8.50576 4.05193 8.11255C4.91209 6.24479 5.17013 5.827 5.7108 5.40922C6.25146 4.99143 6.28833 4.97914 7.18534 5.02829C7.92261 5.05287 8.26667 5.13888 8.90564 5.45837ZM10.8717 9.70997C11.4369 9.882 11.9285 10.0786 11.953 10.1646C12.0022 10.2875 11.9039 10.2998 11.5967 10.2383C9.99926 9.89429 7.11161 9.89429 5.77224 10.2261C4.75234 10.4841 3.32695 11.1722 2.92145 11.6146L2.61425 11.9464L2.67569 11.5777C2.86001 10.5087 2.92145 10.3858 3.30237 10.2261C3.83075 9.9803 6.17773 9.5748 7.49254 9.4765C8.09464 9.43964 8.61073 9.39048 8.62302 9.3782C8.73361 9.26761 9.99926 9.46421 10.8717 9.70997ZM8.65988 10.9879C8.9425 11.3565 8.9425 11.6146 8.65988 13.0031C8.54929 13.5192 8.54929 13.8264 8.65988 14.2196C8.79505 14.7111 8.85649 14.7603 9.74122 15.1658C11.5352 16.0014 12.0882 16.6649 12.1251 18.078C12.1374 18.8399 12.1128 18.9382 11.8424 19.1348C11.5352 19.3682 10.2082 19.9212 9.60605 20.0686L9.2497 20.1547L9.33572 19.5526C9.38487 19.2208 9.43402 18.8276 9.4586 18.6924C9.48317 18.5449 9.40944 18.078 9.31114 17.6602C9.06538 16.7263 8.68446 16.3208 7.49254 15.7556C6.34976 15.2149 6.26375 15.0306 6.38663 13.3718C6.47264 12.229 6.46036 12.1184 6.20231 11.7743C6.05486 11.5654 5.8091 11.3565 5.63707 11.3197C5.32987 11.246 5.23157 11.0248 5.5019 11.0125C5.57563 11.0125 5.98113 10.9388 6.38663 10.8405C6.79213 10.7544 7.40652 10.6684 7.76287 10.6684C8.31582 10.6561 8.42641 10.7053 8.65988 10.9879ZM9.79037 12.401C9.70435 12.487 9.64291 12.4993 9.64291 12.4256C9.64291 12.2536 9.79037 12.1061 9.87638 12.1921C9.90096 12.229 9.86409 12.3273 9.79037 12.401ZM5.87054 12.6836C5.83367 12.7942 5.77224 12.8557 5.74766 12.8188C5.7108 12.7819 5.72308 12.7082 5.77224 12.6345C5.88283 12.4379 5.95655 12.4747 5.87054 12.6836ZM5.67393 13.9984C5.63707 14.0967 5.60021 14.0599 5.60021 13.9247C5.58792 13.7895 5.62478 13.7158 5.66164 13.765C5.69851 13.8018 5.7108 13.9124 5.67393 13.9984ZM13.4644 14.5514C13.6242 14.748 13.6119 14.7603 13.4276 14.6005C13.2187 14.4408 13.1572 14.3425 13.2555 14.3425C13.2801 14.3425 13.3784 14.4408 13.4644 14.5514ZM14.3737 16.4069C14.1894 16.9475 13.7225 17.8445 13.8699 17.3776C14.2754 16.0751 14.5089 15.4607 14.5335 15.6204C14.5581 15.731 14.4843 16.0874 14.3737 16.4069ZM6.65696 16.7509C6.6201 16.7878 6.50951 16.8001 6.42349 16.7632C6.32519 16.7263 6.36205 16.6895 6.49722 16.6895C6.63239 16.6772 6.70611 16.7141 6.65696 16.7509ZM8.9425 19.0119C8.90564 19.1593 8.8442 19.2454 8.80734 19.2085C8.7459 19.1348 8.86878 18.7661 8.95479 18.7661C8.97937 18.7661 8.97937 18.8767 8.9425 19.0119ZM3.04433 19.6263C3.08119 19.7614 3.05662 19.8475 2.99518 19.7983C2.93374 19.7614 2.88459 19.6509 2.88459 19.5526C2.88459 19.3068 2.9706 19.3437 3.04433 19.6263ZM5.21928 20.8796C6.25146 21.4695 8.16837 21.7398 9.33572 21.4695C9.60605 21.408 9.83952 21.3712 9.85181 21.3957C9.97469 21.5186 9.29885 22.0224 8.58616 22.3419C7.60313 22.7965 6.95187 22.8211 6.14087 22.4648C5.57563 22.219 4.71548 21.3712 4.40828 20.7813C4.17481 20.339 4.19939 20.1669 4.45743 20.3881C4.56802 20.4864 4.91209 20.7076 5.21928 20.8796ZM3.92906 21.1008C3.96592 21.1623 3.94134 21.2237 3.8799 21.2237C3.80618 21.2237 3.74474 21.1623 3.74474 21.1008C3.74474 21.0271 3.76931 20.9779 3.79389 20.9779C3.83075 20.9779 3.89219 21.0271 3.92906 21.1008Z" fill="#A540F3"/>
<path d="M21.3911 4.25351C21.3419 4.32724 21.2067 4.38868 21.0839 4.38868C20.8258 4.38868 20.2114 4.65901 20.2114 4.78189C20.2114 4.84333 20.1377 4.88019 20.0517 4.88019C19.7076 4.88019 18.6509 5.7772 17.9136 6.68651C17.4835 7.21489 16.906 8.1119 16.6111 8.68943C16.1073 9.69703 16.095 9.77076 16.0827 10.9627C16.0704 11.7245 15.9844 12.4987 15.8492 12.9902C15.5789 13.9486 15.5789 14.8088 15.8492 15.8287C16.0458 16.6028 16.1564 16.8363 17.1026 18.2985C17.3975 18.7532 17.631 19.1587 17.631 19.2078C17.631 19.2693 17.8276 19.7116 18.0733 20.2032C18.6877 21.4688 20.15 22.9679 20.9733 23.1768C21.9686 23.4103 22.3495 23.3734 24.3279 22.8205C24.8808 22.6607 25.6918 22.3412 25.5566 22.329C25.4952 22.329 25.6795 22.2061 25.9867 22.0586C26.7117 21.7023 27.6087 20.793 28.0019 20.0066C28.2354 19.5519 28.4074 19.3676 28.6655 19.3061C28.8498 19.257 29.1324 19.1587 29.3044 19.0727C29.4765 18.9867 29.7591 18.8515 29.9434 18.7778C30.3366 18.6303 30.5578 18.1634 30.779 17.0083C30.9756 15.9147 30.8773 14.9808 30.4349 13.8749C30.0909 13.0516 29.3044 11.7368 29.0587 11.5771C28.9973 11.5402 28.9112 11.2453 28.8621 10.9258C28.7515 10.1394 27.9282 8.03817 27.363 7.10429C26.6994 5.99839 25.8884 5.24883 24.7948 4.69587C23.9224 4.25351 23.738 4.20436 22.6567 4.16749C21.8703 4.13063 21.4402 4.16749 21.3911 4.25351ZM24.2296 5.6789C24.549 5.85093 25.0283 6.19499 25.2863 6.42846C25.7655 6.87082 26.6871 8.19791 26.5151 8.19791C26.466 8.19791 26.0113 8.13648 25.5321 8.07504C24.549 7.95216 21.944 8.14876 19.8674 8.5174C19.2284 8.6157 18.6877 8.68943 18.6632 8.65257C18.6263 8.6157 18.7492 8.34537 18.9458 8.05046C19.1301 7.76784 19.3144 7.46064 19.3513 7.37463C19.4496 7.12887 20.7398 5.85093 21.0101 5.72805C21.1453 5.65433 21.3911 5.51916 21.5631 5.42086C22.0423 5.12595 23.4923 5.2734 24.2296 5.6789ZM17.8767 8.52969C17.8767 8.70172 17.6433 8.99663 17.5695 8.9229C17.4712 8.8246 17.631 8.44367 17.7661 8.44367C17.8276 8.44367 17.8767 8.48054 17.8767 8.52969ZM26.2079 9.13179C26.6011 9.18094 26.7609 9.26696 26.8469 9.46356C26.9206 9.61102 27.0558 9.85678 27.1664 10.0042L27.363 10.2869L26.8346 10.0902C25.9621 9.78305 24.2541 9.4267 23.5783 9.4267C22.2266 9.4267 18.7737 10.1885 17.7293 10.7292L17.3852 10.9012L17.6064 10.508C17.9013 9.97966 18.786 9.70932 21.4402 9.30382C23.7872 8.95976 24.5245 8.93519 26.2079 9.13179ZM23.3325 10.7661C23.6152 10.9627 23.9224 11.2207 24.0084 11.319C24.2664 11.6262 24.377 12.4495 24.2418 13.027C24.1804 13.3097 24.1681 13.8135 24.205 14.133C24.3279 14.9685 25.2249 15.8901 26.3922 16.3693C26.9943 16.6151 27.2278 16.7748 27.2769 16.9715C27.4981 18.0774 27.3753 18.6057 26.8592 18.7163C26.6871 18.7655 26.0727 18.9252 25.5075 19.085C24.9423 19.2447 24.4139 19.3799 24.3156 19.3799C24.2296 19.3799 24.119 19.1833 24.0821 18.9129C24.0452 18.6672 23.9592 18.36 23.8855 18.2494C23.8241 18.1265 23.7749 17.9422 23.7749 17.8439C23.7749 17.5613 23.4308 16.91 23.0499 16.5045C22.8779 16.3202 22.2758 15.9516 21.7228 15.6935L20.7029 15.2143V14.2927C20.7029 13.027 20.5063 12.2283 20.0271 11.5279L19.6093 10.9258L20.4326 10.6801C20.8873 10.5449 21.6 10.4343 22.03 10.422C22.7059 10.4097 22.8779 10.4589 23.3325 10.7661ZM24.9668 13.1376C24.93 13.2359 24.8931 13.1991 24.8931 13.0639C24.8808 12.9287 24.9177 12.855 24.9545 12.9042C24.9914 12.941 25.0037 13.0516 24.9668 13.1376ZM16.4268 13.6292C16.353 13.7029 16.3407 13.6292 16.3776 13.3957C16.4391 13.1376 16.4636 13.1131 16.5005 13.2851C16.5251 13.408 16.5005 13.5554 16.4268 13.6292ZM20.2974 13.5063C20.2606 13.6046 20.2237 13.5677 20.2237 13.4325C20.2114 13.2974 20.2483 13.2237 20.2852 13.2728C20.322 13.3097 20.3343 13.4203 20.2974 13.5063ZM25.5321 14.3664C25.6427 14.7473 25.5566 14.7719 25.3969 14.4033C25.3232 14.2313 25.2986 14.0961 25.36 14.0961C25.4215 14.0961 25.4952 14.219 25.5321 14.3664ZM19.5479 15.5829C19.6462 15.755 19.425 15.7181 19.1547 15.5092C18.9335 15.3495 18.9335 15.3372 19.2038 15.4109C19.3513 15.4478 19.511 15.5215 19.5479 15.5829ZM28.0879 15.9516C28.2108 16.185 28.1985 16.1973 27.9651 16.0621C27.8176 15.9884 27.707 15.841 27.707 15.7427C27.707 15.5092 27.9036 15.6198 28.0879 15.9516ZM26.2939 20.24C25.4583 21.0879 23.6275 21.8374 22.3495 21.8374C21.7597 21.8374 21.1822 21.518 20.8012 20.9773L20.4572 20.5104L21.7843 20.4489C23.1114 20.3875 26.1833 19.9574 26.3185 19.8222C26.3676 19.7854 26.4782 19.7485 26.5888 19.7485C26.7117 19.7485 26.6011 19.9205 26.2939 20.24ZM22.2635 22.8942C22.2266 22.9311 22.116 22.9434 22.03 22.9065C21.9317 22.8696 21.9686 22.8328 22.1038 22.8328C22.2389 22.8205 22.3127 22.8573 22.2635 22.8942Z" fill="#A540F3"/>
</svg>
