<svg width="80" height="38" viewBox="0 0 80 38" fill="none" xmlns="http://www.w3.org/2000/svg">
<rect x="20.516" y="0.387096" width="5.49219" height="6.17589" rx="2.70967" fill="#A540F3" stroke="#A540F3" stroke-width="0.774193"/>
<rect x="60.607" y="1.93788" width="4.47842" height="5.91095" rx="2.23921" transform="rotate(90 60.607 1.93788)" fill="#A540F3" stroke="#A540F3" stroke-width="0.774193"/>
<path d="M11.2794 5.26339C11.6842 5.85266 12.4908 6.00103 13.08 5.59618C13.6248 5.221 14.124 5.09064 14.55 5.08322C14.9761 5.09064 15.4752 5.221 16.02 5.59618C16.6093 6.00103 17.4158 5.85266 17.8207 5.26339C18.2033 4.70698 18.092 3.95768 17.5822 3.53374L17.5822 3.53268C17.0618 3.10027 16.0868 2.59685 14.8934 2.51419C14.8902 2.51419 14.886 2.51419 14.8828 2.51313C14.8372 2.50995 14.7927 2.50783 14.7471 2.50571C14.6963 2.50359 14.6465 2.50253 14.5966 2.50147C14.5839 2.50147 14.5723 2.50041 14.5595 2.50041C14.5564 2.50041 14.5542 2.50041 14.5511 2.50041C14.5479 2.50041 14.5458 2.50041 14.5426 2.50041C14.5299 2.50041 14.5182 2.50147 14.5055 2.50147C14.4557 2.50147 14.4048 2.50359 14.355 2.50571C14.3094 2.50783 14.2639 2.50995 14.2193 2.51313C14.2162 2.51313 14.2119 2.51313 14.2087 2.51419C13.0154 2.59579 12.0403 3.10027 11.5199 3.53268L11.521 3.53374C11.008 3.95768 10.8957 4.70698 11.2794 5.26339Z" fill="#A540F3"/>
<path d="M71.7929 31.4946C67.0115 31.4946 63.4434 26.8559 63.4434 20.4332C63.4434 13.2968 67.0472 8.26562 71.9713 8.26562C76.61 8.26562 79.9998 12.9756 79.9998 19.5411C79.9998 26.5348 76.5029 31.4946 71.7929 31.4946ZM69.7234 16.865C69.7234 23.2877 70.6511 27.1771 72.0784 27.1771C73.0418 27.1771 73.7197 25.7498 73.7197 22.9309C73.7197 16.4368 72.792 12.5475 71.3647 12.5475C70.437 12.5475 69.7234 14.0104 69.7234 16.865Z" fill="#A540F3"/>
<path d="M53.2553 11.6349C53.2553 10.4931 53.2539 8.69531 53.2539 8.69531H59.2142C60.6415 8.69531 61.2837 9.33759 61.2837 10.7649V25.1447C61.2837 26.5363 62.3542 27.558 62.8894 28.0932C62.8894 28.0932 62.8894 28.6415 62.8894 29.2481C62.8894 30.4256 62.8894 31.0679 62.8894 31.0679H53.2844C53.2844 31.0679 53.291 30.4256 53.291 29.2481C53.291 28.6415 53.2884 28.0932 53.2884 28.0932C53.8593 27.558 54.9324 26.5363 54.9324 25.1447V14.6542C54.9324 13.4053 54.7183 12.6917 53.9689 12.0494C53.6308 11.7596 53.2553 11.6349 53.2553 11.6349Z" fill="#A540F3"/>
<path d="M46.6721 31.0678C43.5677 31.0678 42.4973 30.0331 42.4973 26.3935C42.4973 24.538 42.7114 22.2544 42.9612 19.721C43.318 16.5096 43.4607 15.4391 43.4607 14.3687C43.4607 13.2269 42.9777 13.2269 41.3555 13.2269L41.7102 10.2184C44.8316 8.51579 46.3897 5.3756 46.8179 4.80469C46.8179 4.80469 46.8862 4.80593 47.7425 4.80593C48.6346 4.80593 49.1341 4.80495 49.1341 4.80495V8.19571C49.1341 8.6239 49.2768 8.69526 49.7407 8.69526H51.5962V10.9789V13.2269H49.8478C49.2769 13.2269 49.0628 13.4053 49.0628 14.2616L49.0984 25.0733C49.0984 26.2508 49.2412 26.6433 50.383 27.3212L51.7032 28.0955C51.6675 29.0589 51.7032 31.0678 51.7032 31.0678H46.6721Z" fill="#A540F3"/>
<path d="M33.4425 31.4958C31.7298 31.4958 27.7086 29.8353 26.6738 29.2287L27.7691 25.3585C27.7781 25.3278 27.7871 25.2976 27.7963 25.268C28.0423 24.4695 28.3618 24.0383 28.9466 24.0383C29.6246 24.0383 30.0885 24.7519 31.0519 25.8581C31.9439 27.0356 32.8003 27.8919 33.6923 27.8919C34.4773 27.8919 35.0482 27.2497 35.0482 26.3219C35.0482 25.0731 34.2276 24.3237 32.1223 23.1462C28.911 21.3265 27.3409 19.1142 27.3409 15.4033C27.3409 11.1928 30.3025 8.19551 34.2632 8.26687C35.7976 8.30256 36.8893 8.51392 38.2239 9.30165C38.6207 9.53583 39.1594 9.93274 39.4432 10.2165L38.722 15.0108H38.0098H37.4569C36.6056 12.7406 34.7985 11.8351 33.8351 11.8351C33.05 11.8351 32.5148 12.4417 32.5148 13.298C32.5148 14.3685 33.2285 14.9394 35.298 16.0455C38.6521 17.8653 40.1864 20.1846 40.1864 23.8956C40.1864 28.3201 37.2962 31.4958 33.4425 31.4958Z" fill="#A540F3"/>
<path d="M27.7963 25.268C28.0423 24.4695 28.3618 24.0383 28.9466 24.0383H28.1648L27.7963 25.268Z" fill="#A540F3"/>
<path d="M28.9466 24.0383C29.6246 24.0383 30.0885 24.7519 31.0519 25.8581L29.5115 24.0383H28.9466Z" fill="#A540F3"/>
<path d="M8.02984 25.1403C8.02984 26.5319 9.10029 27.5536 9.63552 28.0888V29.2437V31.0635H0.0305313C0.0305313 31.0635 0.0370929 30.4212 0.0370929 29.2437C0.0370929 28.6371 0.0345349 28.0888 0.0345349 28.0888C0.605445 27.5536 1.67706 26.5296 1.67706 25.138L1.67706 8.47451C1.67706 7.22564 0.711685 6.59854 -0.00195312 5.95627C-0.00195312 5.95627 1.06182e-05 3.12318 1.06182e-05 2.51658C1.06182e-05 2.51658 0.677967 2.51562 1.71274 2.51562H6.03025C7.42185 2.51562 8.02844 3.12222 8.02844 4.51381L8.02984 25.1403Z" fill="#A540F3"/>
<path d="M10.1986 37.3114H13.134H18.1339C19.0625 37.3114 19.4911 36.99 19.8839 36.0972C20.7768 34.2401 21.5267 32.4544 22.2767 29.633C23.0421 26.7678 23.7232 24.3515 24.2484 21.9902C24.7742 19.2344 25.0205 16.4765 25.2979 13.7761C25.3693 12.8833 25.5836 12.2404 25.9765 11.669C26.2622 11.2762 26.4407 10.8119 26.4407 10.1333C26.4407 9.20479 25.8336 8.59766 25.0122 8.59766H21.6551C20.8337 8.59766 20.2266 9.31192 20.2266 10.2762C20.2266 11.0619 20.548 11.5262 20.9052 11.9904C21.3337 12.4547 21.4766 13.0261 21.3694 14.0261C21.2266 16.7046 20.7053 19.7761 20.2053 21.9546C20.0268 22.7403 19.4554 22.7046 19.3125 21.9903C18.7768 19.9546 18.2624 17.026 17.9052 14.2404C17.7624 12.9904 17.9409 12.3476 18.3695 11.7762C18.7266 11.3833 19.0124 10.9547 19.0124 10.3119C19.0124 9.34764 18.3338 8.59766 17.441 8.59766H11.6911C10.7983 8.59766 10.084 9.41907 10.084 10.4548C10.084 10.9905 10.1911 11.4904 10.5483 11.919C10.9411 12.419 11.1197 12.919 11.2625 13.669C11.7818 16.4442 12.3249 19.1929 13.0102 21.9546C13.6908 24.6961 14.4592 27.4668 15.2769 30.133C15.4911 30.8116 15.4197 31.3115 14.9911 31.8115L12.3841 34.8472L10.1986 37.3114Z" fill="#A540F3"/>
</svg>
