<svg width="24" height="24" viewBox="0 0 24 24" fill="none" xmlns="http://www.w3.org/2000/svg">
<path fill-rule="evenodd" clip-rule="evenodd" d="M9.918 3.632C9.063 4.284 8.068 5.277 6.672 6.672C5.276 8.067 4.284 9.062 3.632 9.918C2.992 10.756 2.75 11.372 2.75 12C2.75 12.628 2.992 13.244 3.632 14.082C4.284 14.937 5.277 15.932 6.672 17.328C8.067 18.724 9.062 19.715 9.918 20.368C10.756 21.008 11.372 21.25 12 21.25C12.628 21.25 13.244 21.008 14.082 20.368C14.937 19.716 15.932 18.723 17.328 17.328C18.724 15.933 19.715 14.938 20.368 14.082C21.008 13.244 21.25 12.628 21.25 12C21.25 11.372 21.008 10.756 20.368 9.918C19.716 9.063 18.723 8.068 17.328 6.672C15.933 5.276 14.938 4.284 14.082 3.632C13.244 2.992 12.628 2.75 12 2.75C11.372 2.75 10.756 2.992 9.918 3.632ZM9.008 2.439C9.98 1.698 10.912 1.25 12 1.25C13.088 1.25 14.02 1.698 14.992 2.44C15.937 3.16 17.002 4.225 18.348 5.572L18.428 5.652C19.775 6.999 20.84 8.063 21.561 9.008C22.302 9.98 22.75 10.912 22.75 12C22.75 13.088 22.302 14.02 21.56 14.992C20.84 15.937 19.775 17.002 18.428 18.348L18.348 18.428C17.001 19.775 15.937 20.84 14.992 21.561C14.02 22.302 13.088 22.75 12 22.75C10.912 22.75 9.98 22.302 9.008 21.56C8.063 20.84 6.998 19.775 5.652 18.428L5.572 18.348C4.225 17.001 3.16 15.937 2.439 14.992C1.698 14.02 1.25 13.088 1.25 12C1.25 10.912 1.698 9.98 2.44 9.008C3.16 8.063 4.225 6.998 5.572 5.652L5.652 5.572C6.999 4.225 8.063 3.16 9.008 2.439Z" fill="black"/>
<path fill-rule="evenodd" clip-rule="evenodd" d="M12.786 8.48689C12.9221 8.34183 13.1102 8.25676 13.309 8.25039C13.5077 8.24401 13.7009 8.31685 13.846 8.45289L16.513 10.9529C16.5878 11.023 16.6474 11.1078 16.6881 11.2018C16.7289 11.2959 16.7499 11.3974 16.7499 11.4999C16.7499 11.6024 16.7289 11.7038 16.6881 11.7979C16.6474 11.892 16.5878 11.9767 16.513 12.0469L13.846 14.5469C13.7003 14.6795 13.5083 14.7495 13.3115 14.7417C13.1146 14.734 12.9288 14.6491 12.794 14.5054C12.6592 14.3617 12.5864 14.1707 12.5913 13.9738C12.5962 13.7769 12.6783 13.5897 12.82 13.4529L14.103 12.2499H10.667C10.333 12.2499 9.823 12.3499 9.42 12.6219C9.057 12.8669 8.75 13.2649 8.75 13.9999C8.75 14.1988 8.67098 14.3896 8.53033 14.5302C8.38968 14.6709 8.19891 14.7499 8 14.7499C7.80109 14.7499 7.61032 14.6709 7.46967 14.5302C7.32902 14.3896 7.25 14.1988 7.25 13.9999C7.25 12.7349 7.832 11.8829 8.58 11.3779C9.289 10.8999 10.112 10.7499 10.667 10.7499H14.103L12.82 9.54689C12.6749 9.41082 12.5899 9.22271 12.5835 9.02393C12.5771 8.82514 12.65 8.63197 12.786 8.48689Z" fill="black"/>
</svg>
