<svg width="24" height="24" viewBox="0 0 24 24" fill="none" xmlns="http://www.w3.org/2000/svg">
<g clip-path="url(#clip0_1759_17061)">
<path d="M7.2 18.4H6.4C6.4 18.6122 6.48429 18.8157 6.63432 18.9657C6.78434 19.1157 6.98783 19.2 7.2 19.2V18.4ZM16.8 18.4V19.2C17.0122 19.2 17.2157 19.1157 17.3657 18.9657C17.5157 18.8157 17.6 18.6122 17.6 18.4H16.8ZM7.2 19.2H16.8V17.6H7.2V19.2ZM17.6 18.4V15.2H16V18.4H17.6ZM6.4 15.2V18.4H8V15.2H6.4ZM12 9.6C10.5148 9.6 9.09041 10.19 8.0402 11.2402C6.99 12.2904 6.4 13.7148 6.4 15.2H8C8 14.1391 8.42143 13.1217 9.17157 12.3716C9.92172 11.6214 10.9391 11.2 12 11.2V9.6ZM17.6 15.2C17.6 13.7148 17.01 12.2904 15.9598 11.2402C14.9096 10.19 13.4852 9.6 12 9.6V11.2C13.0609 11.2 14.0783 11.6214 14.8284 12.3716C15.5786 13.1217 16 14.1391 16 15.2H17.6ZM22.4 18.4C22.4 18.792 22.2176 19.232 21.7504 19.7056C21.28 20.184 20.5584 20.6496 19.6048 21.0592C17.6992 21.8752 15.0112 22.4 12 22.4V24C15.1744 24 18.0864 23.4496 20.2352 22.528C21.3072 22.0688 22.2272 21.5008 22.8896 20.8304C23.5552 20.1552 24 19.3328 24 18.4H22.4ZM12 22.4C8.9888 22.4 6.3008 21.8752 4.3952 21.0592C3.4416 20.6496 2.72 20.184 2.2496 19.7056C1.7824 19.232 1.6 18.7952 1.6 18.4H0C0 19.3328 0.4448 20.1552 1.1104 20.8304C1.7728 21.5024 2.6928 22.0688 3.7664 22.5296C5.912 23.4496 8.824 24 12 24V22.4ZM1.6 18.4C1.6 18.0128 1.776 17.5792 2.2304 17.112C2.688 16.6416 3.3904 16.1808 4.32 15.7728L3.68 14.3072C2.6304 14.7664 1.7312 15.3312 1.0848 15.9968C0.432 16.6656 0 17.48 0 18.4H1.6ZM19.68 15.7728C20.6096 16.1808 21.312 16.6416 21.768 17.112C22.2224 17.5792 22.4 18.0128 22.4 18.4H24C24 17.48 23.568 16.6656 22.9152 15.9968C22.2688 15.3312 21.3696 14.7664 20.32 14.3072L19.68 15.7728ZM12 6.4C11.3635 6.4 10.753 6.14714 10.3029 5.69706C9.85286 5.24697 9.6 4.63652 9.6 4H8C8 5.06087 8.42143 6.07828 9.17157 6.82843C9.92172 7.57857 10.9391 8 12 8V6.4ZM14.4 4C14.4 4.63652 14.1471 5.24697 13.6971 5.69706C13.247 6.14714 12.6365 6.4 12 6.4V8C13.0609 8 14.0783 7.57857 14.8284 6.82843C15.5786 6.07828 16 5.06087 16 4H14.4ZM12 1.6C12.6365 1.6 13.247 1.85286 13.6971 2.30294C14.1471 2.75303 14.4 3.36348 14.4 4H16C16 2.93913 15.5786 1.92172 14.8284 1.17157C14.0783 0.421427 13.0609 0 12 0V1.6ZM12 0C10.9391 0 9.92172 0.421427 9.17157 1.17157C8.42143 1.92172 8 2.93913 8 4H9.6C9.6 3.36348 9.85286 2.75303 10.3029 2.30294C10.753 1.85286 11.3635 1.6 12 1.6V0Z" fill="black"/>
</g>
<defs>
<clipPath id="clip0_1759_17061">
<rect width="24" height="24" fill="white"/>
</clipPath>
</defs>
</svg>
